# xmcd
#
# Track frame offsets: 
#        150
#        17937
#        32719
#        47663
#        62680
#        80749
#        105524
#        122751
#        136610
#        150177
#        169522
#        185076
#
# Disc length: 2837 seconds
#
# Revision: 0
# Processed by: cddbd v1.5.2PL0 Copyright (c) Steve Scherf et al.
# Submitted via: ExactAudioCopy v1.3
#
DISCID=910b130c
DTITLE=Craig Caffall Band - Got It Covered
DYEAR=2014
DGENRE=Blues Rock
TTITLE0=Knock On Wood
TTITLE1=Ain't Too Proud To Beg
TTITLE2=Unchain My Heart
TTITLE3=Signed, Sealed, Delivered
TTITLE4=Drift Away
TTITLE5=Mustang Sally
TTITLE6=I've Got Dreams To Remember
TTITLE7=Nowhere To Run
TTITLE8=Something You Got
TTITLE9=Chain Of Fools
TTITLE10=Hold Me Up
TTITLE11=Cryin' In The Rain
EXTD=
EXTT0=
EXTT1=
EXTT2=
EXTT3=
EXTT4=
EXTT5=
EXTT6=
EXTT7=
EXTT8=
EXTT9=
EXTT10=
EXTT11=
PLAYORDER=
